#Comment line ignore any data following # character 
#Hierarchical Translation and Rotation (.htr) file 
[Header]	
#Header keywords are followed by a single value 
FileType HTR		#Single word string
DataType HTRS		#Translation followed by rotation and scale data
FileVersion 1		#integer
NumSegments 84		#integer
NumFrames 2		#integer
DataFrameRate 30		#integer, data frame rate in this file
EulerRotationOrder ZYX
CalibrationUnits mm
RotationUnits Degrees
GlobalAxisofGravity Y
BoneLengthAxis Y
ScaleFactor 1.00
[SegmentNames&Hierarchy]
#CHILD	PARENT
MASTER GLOBAL
root MASTER
chest root
L_mid_tent01 root
R_mid_tent01 root
spine01 root
Bip01_Neck chest
L_humerus chest
R_humerus chest
weapon_bone chest
Bip01_Head Bip01_Neck
eye_left_bone Bip01_Head
eye_right_bone Bip01_Head
L_forearm L_humerus
L_front_hand L_forearm
L_weapon_bone L_forearm
L_front_hand01_01 L_front_hand
L_front_hand02_01 L_front_hand
L_front_hand03_01 L_front_hand
L_front_hand01_02 L_front_hand01_01
L_front_hand02_02 L_front_hand02_01
L_front_hand03_02 L_front_hand03_01
R_forearm R_humerus
R_front_hand R_forearm
R_weapon_bone R_forearm
R_front_hand01_01 R_front_hand
R_front_hand02_01 R_front_hand
R_front_hand03_01 R_front_hand
R_front_hand01_02 R_front_hand01_01
R_front_hand02_02 R_front_hand02_01
R_front_hand03_02 R_front_hand03_01
null_rope01_connect L_mid_tent01
Rope1_Seg01 null_rope01_connect
Rope1_Seg02 Rope1_Seg01
Rope1_Seg03 Rope1_Seg02
Rope1_Seg04 Rope1_Seg03
Rope1_Seg05 Rope1_Seg04
Rope1_Seg06 Rope1_Seg05
Rope1_Seg07 Rope1_Seg06
Rope1_Seg09 Rope1_Seg07
L_mid_hand01 Rope1_Seg09
L_mid_hand02 Rope1_Seg09
L_mid_hand03 Rope1_Seg09
null_rope02_connect R_mid_tent01
Rope2_Seg01 null_rope02_connect
Rope2_Seg02 Rope2_Seg01
Rope2_Seg03 Rope2_Seg02
Rope2_Seg04 Rope2_Seg03
Rope2_Seg05 Rope2_Seg04
Rope2_Seg06 Rope2_Seg05
Rope2_Seg07 Rope2_Seg06
Rope2_Seg09 Rope2_Seg07
R_mid_hand01 Rope2_Seg09
R_mid_hand02 Rope2_Seg09
R_mid_hand03 Rope2_Seg09
spine02 spine01
spine03 spine02
pelvis spine03
null_rope03_connect pelvis
null_rope04_connect pelvis
Rope3_Seg01 null_rope03_connect
Rope3_Seg02 Rope3_Seg01
Rope3_Seg03 Rope3_Seg02
Rope3_Seg04 Rope3_Seg03
Rope3_Seg05 Rope3_Seg04
Rope3_Seg06 Rope3_Seg05
Rope3_Seg07 Rope3_Seg06
Rope3_Seg08 Rope3_Seg07
Rope3_Seg09 Rope3_Seg08
R_rear_hand01 Rope3_Seg09
R_rear_hand02 Rope3_Seg09
R_rear_hand03 Rope3_Seg09
Rope4_Seg01 null_rope04_connect
Rope4_Seg02 Rope4_Seg01
Rope4_Seg03 Rope4_Seg02
Rope4_Seg04 Rope4_Seg03
Rope4_Seg05 Rope4_Seg04
Rope4_Seg06 Rope4_Seg05
Rope4_Seg07 Rope4_Seg06
Rope4_Seg08 Rope4_Seg07
Rope4_Seg09 Rope4_Seg08
L_rear_hand01 Rope4_Seg09
L_rear_hand02 Rope4_Seg09
L_rear_hand03 Rope4_Seg09
[BasePosition]
#SegmentName Tx, Ty, Tz, Rx, Ry, Rz, BoneLength
MASTER 0.000000 0.000000 0.000000 -90.000000 0.000000 0.000000 10.000000 
root 0.000000 0.000000 0.000000 0.000000 0.000000 0.000000 10.000000 
chest 0.000000 0.000000 0.000000 0.000000 0.000000 0.000000 10.000000 
L_mid_tent01 0.000000 0.000000 0.000000 0.000000 0.000000 0.000000 10.000000 
R_mid_tent01 0.000000 0.000000 0.000000 0.000000 0.000000 0.000000 10.000000 
spine01 0.000000 0.000000 0.000000 0.000000 0.000000 0.000000 10.000000 
Bip01_Neck 0.000000 0.000000 0.000000 0.000000 0.000000 0.000000 10.000000 
L_humerus 0.000000 0.000000 0.000000 0.000000 0.000000 0.000000 10.000000 
R_humerus 0.000000 0.000000 0.000000 0.000000 0.000000 0.000000 10.000000 
weapon_bone 0.000000 0.000000 0.000000 0.000000 0.000000 0.000000 10.000000 
Bip01_Head 0.000000 0.000000 0.000000 0.000000 0.000000 0.000000 10.000000 
eye_left_bone 0.000000 0.000000 0.000000 0.000000 0.000000 0.000000 10.000000 
eye_right_bone 0.000000 0.000000 0.000000 0.000000 0.000000 0.000000 10.000000 
L_forearm 0.000000 0.000000 0.000000 0.000000 0.000000 0.000000 10.000000 
L_front_hand 0.000000 0.000000 0.000000 0.000000 0.000000 0.000000 10.000000 
L_weapon_bone 0.000000 0.000000 0.000000 0.000000 0.000000 0.000000 10.000000 
L_front_hand01_01 0.000000 0.000000 0.000000 0.000000 0.000000 0.000000 10.000000 
L_front_hand02_01 0.000000 0.000000 0.000000 0.000000 0.000000 0.000000 10.000000 
L_front_hand03_01 0.000000 0.000000 0.000000 0.000000 0.000000 0.000000 10.000000 
L_front_hand01_02 0.000000 0.000000 0.000000 0.000000 0.000000 0.000000 10.000000 
L_front_hand02_02 0.000000 0.000000 0.000000 0.000000 0.000000 0.000000 10.000000 
L_front_hand03_02 0.000000 0.000000 0.000000 0.000000 0.000000 0.000000 10.000000 
R_forearm 0.000000 0.000000 0.000000 0.000000 0.000000 0.000000 10.000000 
R_front_hand 0.000000 0.000000 0.000000 0.000000 0.000000 0.000000 10.000000 
R_weapon_bone 0.000000 0.000000 0.000000 0.000000 0.000000 0.000000 10.000000 
R_front_hand01_01 0.000000 0.000000 0.000000 0.000000 0.000000 0.000000 10.000000 
R_front_hand02_01 0.000000 0.000000 0.000000 0.000000 0.000000 0.000000 10.000000 
R_front_hand03_01 0.000000 0.000000 0.000000 0.000000 0.000000 0.000000 10.000000 
R_front_hand01_02 0.000000 0.000000 0.000000 0.000000 0.000000 0.000000 10.000000 
R_front_hand02_02 0.000000 0.000000 0.000000 0.000000 0.000000 0.000000 10.000000 
R_front_hand03_02 0.000000 0.000000 0.000000 0.000000 0.000000 0.000000 10.000000 
null_rope01_connect 0.000000 0.000000 0.000000 0.000000 0.000000 0.000000 10.000000 
Rope1_Seg01 0.000000 0.000000 0.000000 0.000000 0.000000 0.000000 10.000000 
Rope1_Seg02 0.000000 0.000000 0.000000 0.000000 0.000000 0.000000 10.000000 
Rope1_Seg03 0.000000 0.000000 0.000000 0.000000 0.000000 0.000000 10.000000 
Rope1_Seg04 0.000000 0.000000 0.000000 0.000000 0.000000 0.000000 10.000000 
Rope1_Seg05 0.000000 0.000000 0.000000 0.000000 0.000000 0.000000 10.000000 
Rope1_Seg06 0.000000 0.000000 0.000000 0.000000 0.000000 0.000000 10.000000 
Rope1_Seg07 0.000000 0.000000 0.000000 0.000000 0.000000 0.000000 10.000000 
Rope1_Seg09 0.000000 0.000000 0.000000 0.000000 0.000000 0.000000 10.000000 
L_mid_hand01 0.000000 0.000000 0.000000 0.000000 0.000000 0.000000 10.000000 
L_mid_hand02 0.000000 0.000000 0.000000 0.000000 0.000000 0.000000 10.000000 
L_mid_hand03 0.000000 0.000000 0.000000 0.000000 0.000000 0.000000 10.000000 
null_rope02_connect 0.000000 0.000000 0.000000 0.000000 0.000000 0.000000 10.000000 
Rope2_Seg01 0.000000 0.000000 0.000000 0.000000 0.000000 0.000000 10.000000 
Rope2_Seg02 0.000000 0.000000 0.000000 0.000000 0.000000 0.000000 10.000000 
Rope2_Seg03 0.000000 0.000000 0.000000 0.000000 0.000000 0.000000 10.000000 
Rope2_Seg04 0.000000 0.000000 0.000000 0.000000 0.000000 0.000000 10.000000 
Rope2_Seg05 0.000000 0.000000 0.000000 0.000000 0.000000 0.000000 10.000000 
Rope2_Seg06 0.000000 0.000000 0.000000 0.000000 0.000000 0.000000 10.000000 
Rope2_Seg07 0.000000 0.000000 0.000000 0.000000 0.000000 0.000000 10.000000 
Rope2_Seg09 0.000000 0.000000 0.000000 0.000000 0.000000 0.000000 10.000000 
R_mid_hand01 0.000000 0.000000 0.000000 0.000000 0.000000 0.000000 10.000000 
R_mid_hand02 0.000000 0.000000 0.000000 0.000000 0.000000 0.000000 10.000000 
R_mid_hand03 0.000000 0.000000 0.000000 0.000000 0.000000 0.000000 10.000000 
spine02 0.000000 0.000000 0.000000 0.000000 0.000000 0.000000 10.000000 
spine03 0.000000 0.000000 0.000000 0.000000 0.000000 0.000000 10.000000 
pelvis 0.000000 0.000000 0.000000 0.000000 0.000000 0.000000 10.000000 
null_rope03_connect 0.000000 0.000000 0.000000 0.000000 0.000000 0.000000 10.000000 
null_rope04_connect 0.000000 0.000000 0.000000 0.000000 0.000000 0.000000 10.000000 
Rope3_Seg01 0.000000 0.000000 0.000000 0.000000 0.000000 0.000000 10.000000 
Rope3_Seg02 0.000000 0.000000 0.000000 0.000000 0.000000 0.000000 10.000000 
Rope3_Seg03 0.000000 0.000000 0.000000 0.000000 0.000000 0.000000 10.000000 
Rope3_Seg04 0.000000 0.000000 0.000000 0.000000 0.000000 0.000000 10.000000 
Rope3_Seg05 0.000000 0.000000 0.000000 0.000000 0.000000 0.000000 10.000000 
Rope3_Seg06 0.000000 0.000000 0.000000 0.000000 0.000000 0.000000 10.000000 
Rope3_Seg07 0.000000 0.000000 0.000000 0.000000 0.000000 0.000000 10.000000 
Rope3_Seg08 0.000000 0.000000 0.000000 0.000000 0.000000 0.000000 10.000000 
Rope3_Seg09 0.000000 0.000000 0.000000 0.000000 0.000000 0.000000 10.000000 
R_rear_hand01 0.000000 0.000000 0.000000 0.000000 0.000000 0.000000 10.000000 
R_rear_hand02 0.000000 0.000000 0.000000 0.000000 0.000000 0.000000 10.000000 
R_rear_hand03 0.000000 0.000000 0.000000 0.000000 0.000000 0.000000 10.000000 
Rope4_Seg01 0.000000 0.000000 0.000000 0.000000 0.000000 0.000000 10.000000 
Rope4_Seg02 0.000000 0.000000 0.000000 0.000000 0.000000 0.000000 10.000000 
Rope4_Seg03 0.000000 0.000000 0.000000 0.000000 0.000000 0.000000 10.000000 
Rope4_Seg04 0.000000 0.000000 0.000000 0.000000 0.000000 0.000000 10.000000 
Rope4_Seg05 0.000000 0.000000 0.000000 0.000000 0.000000 0.000000 10.000000 
Rope4_Seg06 0.000000 0.000000 0.000000 0.000000 0.000000 0.000000 10.000000 
Rope4_Seg07 0.000000 0.000000 0.000000 0.000000 0.000000 0.000000 10.000000 
Rope4_Seg08 0.000000 0.000000 0.000000 0.000000 0.000000 0.000000 10.000000 
Rope4_Seg09 0.000000 0.000000 0.000000 0.000000 0.000000 0.000000 10.000000 
L_rear_hand01 0.000000 0.000000 0.000000 0.000000 0.000000 0.000000 10.000000 
L_rear_hand02 0.000000 0.000000 0.000000 0.000000 0.000000 0.000000 10.000000 
L_rear_hand03 0.000000 0.000000 0.000000 0.000000 0.000000 0.000000 10.000000 
#Beginning of Data. Separated by tabs
#Fr	Tx	Ty	Tz	Rx	Ry	Rz	SF
[MASTER]
22 370.012115 4873.268555 2851.915283 0.001660 0.001660 0.001660 5658.540039
23 307.310333 5096.300293 2772.157227 0.001660 0.001660 0.001660 5809.610352
[root]
22 393.383423 -122.222290 621.781189 -32.544586 -36.325260 -71.815536 745.855652
23 397.885712 -121.329651 565.886414 -36.026661 -40.670624 -69.353394 702.325684
[chest]
22 -84.512650 -34.090519 0.000000 -5.924757 -5.946099 145.101852 91.129311
23 -84.512650 -34.090519 0.000000 -6.165521 -8.863548 145.323013 91.129311
[L_mid_tent01]
22 27.299263 22.179335 -249.918671 -5.023788 18.302906 72.030899 252.381699
23 27.299273 22.179338 -249.918671 -5.477963 18.129452 71.158180 252.381699
[R_mid_tent01]
22 23.228794 24.509907 226.238495 161.031723 -31.553982 65.121979 228.744751
23 23.228794 24.509907 226.238495 160.333008 -32.550045 64.794930 228.744751
[spine01]
22 -0.361383 -0.195265 0.000000 -0.000001 -0.000007 22.052340 0.410763
23 -0.361383 -0.195265 0.000000 -0.000001 -0.000007 22.052340 0.410763
[Bip01_Neck]
22 165.484543 71.581718 0.000119 176.643677 -1.657967 43.431911 180.302734
23 165.484543 71.581718 0.000119 176.643677 -1.657967 43.431911 180.302734
[L_humerus]
22 -13.983130 -135.272980 -120.471481 158.888519 66.002167 -109.084999 181.680161
23 -13.983130 -135.272980 -120.471481 160.248215 64.623184 -107.587646 181.680161
[R_humerus]
22 -13.983309 -135.273102 125.287651 -174.255020 -48.544476 -90.297440 184.909012
23 -13.983309 -135.273102 125.287651 -174.544998 -47.439884 -89.952507 184.909012
[weapon_bone]
22 235.964890 -300.705902 0.000000 0.000000 -89.951546 -128.212341 382.234833
23 235.964890 -300.705902 0.000000 0.000000 -89.951546 -128.212341 382.234833
[Bip01_Head]
22 213.336395 186.015335 7.906244 -1.002658 1.504275 -38.967625 283.154785
23 213.337509 186.012360 7.944821 0.703298 0.911055 -40.655422 283.154755
[eye_left_bone]
22 -24.626970 125.451866 -64.772606 0.000000 -90.000000 -99.840431 143.318359
23 -24.626970 125.451866 -64.772606 0.000000 -90.000000 -99.840431 143.318359
[eye_right_bone]
22 -24.626970 125.451866 64.327362 0.000000 -89.965736 80.156380 143.117676
23 -24.626970 125.451866 64.327362 0.000000 -89.965736 80.156380 143.117676
[L_forearm]
22 322.776093 0.000000 -0.000119 0.000432 -0.002307 -111.221695 322.776093
23 322.776093 0.000000 -0.000119 0.000433 -0.002307 -111.248665 322.776093
[L_front_hand]
22 241.149185 -0.042021 -3.300071 -178.667953 -1.835447 -27.422350 241.171753
23 241.149185 -0.042021 -3.300071 -178.667953 -1.835447 -27.422350 241.171753
[L_weapon_bone]
22 156.183838 0.000000 0.000000 0.000014 0.000007 0.000001 156.183838
23 156.183838 0.000000 0.000000 0.000014 0.000007 0.000001 156.183838
[L_front_hand01_01]
22 86.095154 20.947098 -0.655860 -0.365735 -0.477812 75.179466 88.609184
23 86.095154 20.947098 -0.655860 -0.366594 -0.477154 75.385574 88.609184
[L_front_hand02_01]
22 86.935165 -11.437475 24.513514 154.083481 -59.794338 -61.001266 91.046425
23 86.935165 -11.437475 24.513514 154.399796 -59.883835 -61.369587 91.046425
[L_front_hand03_01]
22 86.637497 -14.123976 -20.424902 -153.626984 58.028236 -62.364826 90.126129
23 86.637497 -14.123976 -20.424902 -153.913864 58.118134 -62.702885 90.126129
[L_front_hand01_02]
22 71.020905 -0.000179 0.000030 0.000329 -0.002324 -106.115456 71.020905
23 71.020905 -0.000179 0.000030 0.000331 -0.002324 -106.206635 71.020905
[L_front_hand02_02]
22 71.020927 -0.000119 0.000060 0.000329 -0.002324 -106.115456 71.020927
23 71.020927 -0.000119 0.000060 0.000331 -0.002324 -106.206635 71.020927
[L_front_hand03_02]
22 71.020905 -0.000060 0.000060 0.000329 -0.002324 -106.115456 71.020905
23 71.020905 -0.000060 0.000060 0.000331 -0.002324 -106.206635 71.020905
[R_forearm]
22 322.776428 -0.000060 0.000030 0.201041 0.068364 -109.885605 322.776428
23 322.776428 -0.000060 0.000030 0.201026 0.068406 -109.909760 322.776428
[R_front_hand]
22 238.847015 -0.006795 2.210259 -2.635298 -10.645461 -26.312506 238.857239
23 238.847015 -0.006795 2.210259 -2.635298 -10.645461 -26.312506 238.857239
[R_weapon_bone]
22 155.664093 0.002503 -0.000030 0.003487 0.001180 -90.988930 155.664078
23 155.664093 0.002503 -0.000030 0.003487 0.001180 -90.988930 155.664078
[R_front_hand01_01]
22 87.624611 14.231146 22.918642 -154.633484 -59.950607 61.746044 91.683487
23 87.624611 14.231146 22.918642 -154.633499 -59.950619 61.746044 91.683487
[R_front_hand02_01]
22 89.356956 14.367283 -19.491137 154.602661 58.302849 63.744389 92.579636
23 89.356956 14.367283 -19.491137 154.602661 58.302849 63.744389 92.579636
[R_front_hand03_01]
22 87.286232 -22.307278 -0.143439 0.162155 -0.423168 -75.767921 90.091743
23 87.286232 -22.307278 -0.143439 0.162155 -0.423168 -75.767921 90.091743
[R_front_hand01_02]
22 71.020905 0.000060 0.000119 0.002323 -0.000334 106.381714 71.020905
23 71.020905 0.000060 0.000119 0.002323 -0.000334 106.381714 71.020905
[R_front_hand02_02]
22 71.020844 -0.000030 -0.000119 0.002323 -0.000334 106.381714 71.020836
23 71.020844 -0.000030 -0.000119 0.002323 -0.000334 106.381714 71.020836
[R_front_hand03_02]
22 71.020905 0.000000 0.000030 0.002323 -0.000334 106.381714 71.020905
23 71.020905 0.000000 0.000030 0.002323 -0.000334 106.381714 71.020905
[null_rope01_connect]
22 328.732483 0.000000 -0.000238 48.924294 -39.167480 -1.242282 328.732483
23 328.732483 0.000000 -0.000238 55.040226 -39.522449 -1.924993 328.732483
[Rope1_Seg01]
22 0.000038 -0.000337 0.000153 28.918085 24.763512 -136.685181 0.000372
23 0.000038 -0.000352 0.000153 31.687933 27.303062 -134.687637 0.000385
[Rope1_Seg02]
22 139.999863 -0.000179 0.000000 -0.241885 5.711626 -6.267693 139.999863
23 139.999863 -0.000179 0.000000 2.369349 9.495718 -3.837904 139.999863
[Rope1_Seg03]
22 139.999924 0.000060 -0.000060 -0.743855 9.096292 -10.097355 139.999924
23 139.999924 0.000060 -0.000060 0.844517 14.814718 -8.194901 139.999924
[Rope1_Seg04]
22 139.999924 -0.000060 -0.000119 -2.033856 11.838255 -17.224508 139.999924
23 139.999924 -0.000060 -0.000119 -1.888034 17.545259 -12.555084 139.999924
[Rope1_Seg05]
22 139.999832 0.000119 -0.000060 -2.301537 14.571132 -14.325972 139.999832
23 139.999832 0.000119 -0.000060 -14.009942 39.797474 -1.363875 139.999832
[Rope1_Seg06]
22 139.999954 0.000119 -0.000060 -28.224319 36.292278 -19.470728 139.999954
23 139.999954 0.000119 -0.000060 -25.157631 33.547062 9.848023 139.999954
[Rope1_Seg07]
22 139.999985 0.000060 0.000000 -68.788773 31.905447 -2.934932 139.999985
23 139.999985 0.000060 0.000000 -10.631379 9.471545 7.923723 139.999985
[Rope1_Seg09]
22 121.602913 0.000119 -0.000089 -89.793175 -1.359789 0.847147 121.602913
23 121.602913 0.000119 -0.000089 -89.793175 -1.359789 0.847147 121.602913
[L_mid_hand01]
22 103.859421 1.038730 8.195221 127.696274 -66.076538 -35.766609 104.187431
23 103.859421 1.038730 8.195221 129.753738 -67.188766 -38.008972 104.187431
[L_mid_hand02]
22 105.572853 -4.139662 -10.864139 -167.140015 43.006081 -70.902893 106.211075
23 105.572853 -4.139662 -10.864139 -168.447937 43.306496 -72.811844 106.211075
[L_mid_hand03]
22 104.641464 17.579376 -3.913581 -6.629650 17.597923 72.871559 106.179977
23 104.641464 17.579376 -3.913581 -6.178545 17.755548 74.357048 106.179977
[null_rope02_connect]
22 328.732849 0.000179 -0.000119 -112.800415 -6.966112 -11.677367 328.732849
23 328.732849 0.000179 -0.000119 -106.908310 -7.519810 -11.234305 328.732849
[Rope2_Seg01]
22 0.000086 -0.000223 0.000000 -9.440769 -27.031126 165.443939 0.000239
23 0.000085 -0.000239 0.000000 -10.564690 -22.503225 164.538422 0.000254
[Rope2_Seg02]
22 139.999741 -0.000060 -0.000119 3.833500 0.128172 -5.404722 139.999756
23 139.999741 -0.000060 -0.000119 4.226347 1.231823 -5.537945 139.999756
[Rope2_Seg03]
22 140.000107 0.000030 0.000000 8.016496 -0.424115 -9.806872 140.000107
23 140.000107 0.000030 0.000000 8.736738 1.364825 -9.419167 140.000107
[Rope2_Seg04]
22 139.999802 0.000000 -0.000060 21.853802 -4.706947 -22.202475 139.999802
23 139.999802 0.000000 -0.000060 22.703712 -0.983606 -18.683416 139.999802
[Rope2_Seg05]
22 139.999985 -0.000060 0.000119 33.232029 -17.455952 -34.786480 139.999985
23 139.999985 -0.000060 0.000119 36.379986 -10.649153 -28.378191 139.999985
[Rope2_Seg06]
22 139.999893 -0.000030 -0.000119 12.116592 -20.465584 -16.601938 139.999893
23 139.999893 -0.000030 -0.000119 16.596481 -14.476157 -14.673606 139.999893
[Rope2_Seg07]
22 139.999893 0.000060 -0.000060 2.267617 -10.663082 -5.413405 139.999893
23 139.999893 0.000060 -0.000060 5.352984 -10.115666 -5.130989 139.999893
[Rope2_Seg09]
22 121.338966 0.000089 -0.000060 33.793236 -1.359788 -0.847141 121.338966
23 121.338966 0.000089 -0.000060 33.793236 -1.359788 -0.847141 121.338966
[R_mid_hand01]
22 104.680779 11.144459 -10.335981 -26.991898 40.639954 54.704464 105.778534
23 104.680779 11.144459 -10.335981 -23.980114 42.262276 59.248188 105.778534
[R_mid_hand02]
22 104.070427 2.443552 8.231699 62.577366 -57.416584 24.150801 104.424065
23 104.070427 2.443552 8.231699 59.529968 -60.717201 27.702343 104.424065
[R_mid_hand03]
22 106.028137 -11.221827 -5.996406 -173.762711 14.561014 -63.787167 106.788818
23 106.028137 -11.221827 -5.996406 -174.753189 14.937827 -67.669312 106.788818
[spine02]
22 129.756927 0.001550 0.000119 0.540722 -4.023496 -15.534616 129.756927
23 129.756927 0.001550 0.000119 0.543412 -4.023132 -15.564681 129.756927
[spine03]
22 78.613861 0.081673 -4.898955 2.005156 3.776578 18.098795 78.766396
23 78.613853 0.081675 -4.898953 2.007131 3.774656 18.127630 78.766396
[pelvis]
22 169.435242 0.051022 0.000000 -0.041000 -0.183861 8.035246 169.435257
23 169.435242 0.051022 0.000000 -0.040196 -0.184036 7.534495 169.435257
[null_rope03_connect]
22 -1.257226 -2.466202 137.391083 42.870186 -19.589621 41.917820 137.418976
23 -1.257226 -2.466202 137.391083 48.241371 -20.168461 41.363632 137.418976
[null_rope04_connect]
22 -1.259640 -2.480268 -137.844437 42.870186 -19.589621 41.917820 137.872513
23 -1.259640 -2.480268 -137.844437 48.241371 -20.168461 41.363632 137.872513
[Rope3_Seg01]
22 -0.000036 0.000000 -0.000039 70.821159 -63.105347 -124.952194 0.000053
23 -0.000036 0.000000 -0.000040 80.273285 -62.968060 -133.502029 0.000054
[Rope3_Seg02]
22 139.999924 -0.000119 0.000060 7.009137 -5.672151 25.653933 139.999924
23 139.999924 -0.000119 0.000060 6.916451 -2.509018 23.073427 139.999924
[Rope3_Seg03]
22 139.999924 -0.000119 0.000119 0.903900 -3.204510 24.374763 139.999924
23 139.999924 -0.000119 0.000119 1.973209 -1.055575 23.769161 139.999924
[Rope3_Seg04]
22 139.999924 0.000119 0.000000 -1.379354 -1.781102 11.712513 139.999924
23 139.999924 0.000119 0.000000 -1.157566 -1.544665 13.512511 139.999924
[Rope3_Seg05]
22 139.999924 -0.000238 0.000060 -1.989181 1.826510 14.553668 139.999924
23 139.999924 -0.000238 0.000060 -0.218531 3.748841 9.789329 139.999924
[Rope3_Seg06]
22 139.999893 -0.000119 -0.000060 -16.223835 5.949202 36.587029 139.999893
23 139.999893 -0.000119 -0.000060 5.327692 16.839399 24.681662 139.999893
[Rope3_Seg07]
22 139.999771 0.000060 -0.000119 -54.411587 -4.458762 27.308348 139.999771
23 139.999771 0.000060 -0.000119 27.092886 20.201807 31.605536 139.999771
[Rope3_Seg08]
22 139.999985 -0.000060 0.000000 -24.166283 -10.070879 5.077122 139.999985
23 139.999985 -0.000060 0.000000 158.373398 13.750874 9.881010 139.999985
[Rope3_Seg09]
22 90.185997 -0.000179 -0.000060 89.793228 -1.359877 -0.847183 90.185997
23 90.185997 -0.000179 -0.000060 89.793228 -1.359877 -0.847183 90.185997
[R_rear_hand01]
22 103.366196 -6.073594 -10.757982 -172.436630 23.546103 -61.016514 104.101845
23 103.366196 -6.073594 -10.757982 -174.043228 23.976637 -65.002983 104.101845
[R_rear_hand02]
22 100.509819 12.039542 -7.992327 -20.870390 33.419476 58.329945 101.543350
23 100.509819 12.039542 -7.992327 -18.533098 34.659100 62.503895 101.543350
[R_rear_hand03]
22 101.539970 5.215704 5.435467 78.426208 -60.383141 13.958279 101.819031
23 101.539970 5.215704 5.435467 76.952400 -63.971771 15.629106 101.819031
[Rope4_Seg01]
22 0.000005 -0.000337 -0.000153 -98.132462 5.291542 -142.331345 0.000370
23 0.000004 -0.000352 -0.000153 -102.090500 10.173127 -145.663025 0.000383
[Rope4_Seg02]
22 139.999985 0.000060 0.000119 -6.800742 -8.244123 5.878806 139.999985
23 139.999985 0.000060 0.000119 -4.411736 -7.678697 2.143267 139.999985
[Rope4_Seg03]
22 139.999924 0.000000 -0.000238 -7.886418 -14.093474 7.960366 139.999924
23 139.999924 0.000000 -0.000238 -4.603387 -11.939137 2.409356 139.999924
[Rope4_Seg04]
22 139.999985 0.000000 0.000119 -5.997784 -21.519632 8.572868 139.999985
23 139.999985 0.000000 0.000119 -4.157895 -19.471607 3.115695 139.999985
[Rope4_Seg05]
22 139.999802 -0.000060 -0.000119 -0.804330 -17.532116 5.612487 139.999802
23 139.999802 -0.000060 -0.000119 -0.618386 -20.024519 1.748182 139.999802
[Rope4_Seg06]
22 139.999924 0.000000 0.000060 2.364576 -17.915335 7.763400 139.999924
23 139.999924 0.000000 0.000060 1.478992 -14.947070 -2.247675 139.999924
[Rope4_Seg07]
22 139.999802 0.000000 0.000000 9.639446 -24.706861 13.873621 139.999802
23 139.999802 0.000000 0.000000 4.407167 -21.725281 -5.063362 139.999802
[Rope4_Seg08]
22 139.999924 0.000000 0.000119 9.615839 -12.998231 10.773099 139.999924
23 139.999924 0.000000 0.000119 9.114650 -19.467287 -1.846845 139.999924
[Rope4_Seg09]
22 90.185791 0.000060 0.000060 -135.617828 2.228885 0.850567 90.185791
23 90.185791 0.000060 0.000060 -135.617828 2.228885 0.850567 90.185791
[L_rear_hand01]
22 101.696655 -8.392275 -7.654577 -14.875789 -36.204914 111.195381 102.329041
23 101.696655 -8.392275 -7.654577 -13.808605 -36.569195 109.397423 102.329041
[L_rear_hand02]
22 102.726799 -1.568258 5.773216 73.822197 69.166573 160.967667 102.900848
23 102.726799 -1.568258 5.773216 72.647606 70.590698 159.713440 102.900848
[L_rear_hand03]
22 104.552910 9.721220 -10.420293 -176.448364 -24.423323 -109.138077 105.519653
23 104.552910 9.721220 -10.420293 -177.121979 -24.509384 -107.501076 105.519653
